<?xml version="1.0" encoding="UTF-8"?> <svg xmlns="http://www.w3.org/2000/svg" width="376" height="37" viewBox="0 0 376 37" fill="none"><g clip-path="url(#clip0_107_5)"><path d="M28.5299 5.83997C26.8799 4.28997 24.91 3.08997 22.63 2.23997C20.35 1.38997 17.82 0.969971 15.05 0.969971H-0.0500488V8.31997H14.85C16.25 8.31997 17.53 8.55997 18.68 9.04997C19.83 9.52997 20.83 10.23 21.68 11.15C22.53 12.07 23.19 13.15 23.66 14.4C24.13 15.65 24.36 17.04 24.36 18.57C24.36 20.1 24.1399 21.44 23.7099 22.69C23.2799 23.94 22.65 25.02 21.83 25.92C21.01 26.82 20.06 27.51 18.95 28C17.84 28.49 16.63 28.72 15.3 28.72H9.09995V19.22H-0.0500488V36.02H14.7C17.53 36.02 20.12 35.6 22.45 34.77C24.78 33.94 26.78 32.74 28.45 31.17C30.12 29.6 31.41 27.75 32.33 25.62C33.25 23.49 33.7099 21.1 33.7099 18.47C33.7099 15.84 33.26 13.5 32.36 11.37C31.46 9.23997 30.19 7.38997 28.54 5.84997L28.5299 5.83997Z" fill="#2D5DC9"></path><path d="M58.9 0.969971H49.75V36.02H58.9V0.969971Z" fill="#2D5DC9"></path><path d="M101.2 18.04C100.1 17.26 98.9001 16.62 97.6001 16.12C96.3001 15.62 94.9801 15.19 93.6501 14.82C92.3201 14.45 91.1001 14.09 90.0001 13.72C88.9001 13.35 88.0201 12.89 87.3801 12.34C86.7301 11.79 86.4001 11.08 86.4001 10.22C86.4001 9.36003 86.7301 8.71003 87.4001 8.29003C88.0701 7.87003 88.9501 7.67003 90.0501 7.67003C91.0201 7.67003 92.1401 7.83003 93.4301 8.15003C94.7101 8.47003 96.0501 8.90003 97.4301 9.45003C98.8101 10 100.12 10.66 101.35 11.43L104.8 4.23003C102.97 3.06003 100.82 2.11003 98.3501 1.38003C95.8801 0.65003 93.3701 0.280029 90.8001 0.280029C88.0001 0.280029 85.5401 0.720029 83.4201 1.61003C81.3001 2.49003 79.6701 3.74003 78.5201 5.36003C77.3701 6.98003 76.7901 8.87003 76.7901 11.03C76.7901 12.83 77.1201 14.33 77.7701 15.53C78.4201 16.73 79.2901 17.7 80.3901 18.45C81.4901 19.2 82.7001 19.82 84.0101 20.3C85.3301 20.78 86.6401 21.2 87.9601 21.55C89.2801 21.9 90.4901 22.26 91.5801 22.63C92.6801 23 93.5601 23.45 94.2301 24.01C94.9001 24.56 95.2301 25.27 95.2301 26.13C95.2301 27.13 94.8401 27.89 94.0501 28.4C93.2701 28.92 92.1901 29.18 90.8201 29.18C89.6201 29.18 88.2501 28.95 86.7201 28.51C85.1901 28.06 83.6701 27.43 82.1701 26.63C80.6701 25.83 79.3201 24.9 78.1201 23.83L74.5701 30.88C75.9701 32.05 77.5501 33.05 79.3001 33.9C81.0501 34.75 82.9001 35.4 84.8501 35.85C86.8001 36.3 88.7601 36.52 90.7301 36.52C93.3301 36.52 95.7001 36.11 97.8301 35.3C99.9601 34.48 101.66 33.27 102.93 31.65C104.2 30.03 104.83 28.04 104.83 25.68C104.83 23.85 104.5 22.31 103.83 21.08C103.16 19.85 102.28 18.84 101.18 18.06L101.2 18.04Z" fill="#2D5DC9"></path><path d="M146.8 4.18997C144.33 2.03997 140.87 0.969971 136.4 0.969971H121V8.15997H130.15H135.95C137.82 8.15997 139.26 8.60997 140.27 9.50997C141.29 10.41 141.8 11.74 141.8 13.51C141.8 15.28 141.29 16.73 140.27 17.66C139.25 18.59 137.81 19.06 135.95 19.06H130.15H121V36.01H130.15V26.26H136.4C140.87 26.26 144.33 25.12 146.8 22.84C149.27 20.56 150.5 17.37 150.5 13.27C150.5 9.16997 149.27 6.34997 146.8 4.18997Z" fill="#2D5DC9"></path><path d="M175.65 0.969971H166.5V36.02H190.5V28.32H175.65V0.969971Z" fill="#2D5DC9"></path><path d="M217.58 0.969971H226.98L241.68 36.02H231.93L222.03 10.12L211.93 36.02H202.53L217.58 0.969971Z" fill="#2D5DC9"></path><path d="M267.5 16.12L259.2 0.969971H250.05L262.95 24.93V36.02H272.1V24.68L284.75 0.969971H275.6L267.5 16.12Z" fill="#2D5DC9"></path><path d="M327.61 0.659912H298.84V8.59991H327.61V0.659912Z" fill="#19AFF9"></path><path d="M327.61 14.52H298.84V22.46H327.61V14.52Z" fill="#19AFF9"></path><path d="M327.61 28.3699H298.84V36.3099H327.61V28.3699Z" fill="#19AFF9"></path><path d="M368.72 24.53C369.63 24.06 370.46 23.51 371.2 22.85C373.73 20.57 375 17.38 375 13.28C375 9.17998 373.73 6.35998 371.2 4.19998C368.67 2.04998 365.07 0.97998 360.4 0.97998H344.65V8.16998H353.81H360.4C362.27 8.16998 363.72 8.61998 364.75 9.51998C365.78 10.42 366.3 11.75 366.3 13.52C366.3 15.29 365.78 16.74 364.75 17.67C363.72 18.6 362.27 19.07 360.4 19.07H353.8H344.65V36.02H353.8V26.27H360.4C360.46 26.27 360.51 26.27 360.56 26.27L365.7 36.03H376.05L368.72 24.54V24.53Z" fill="#19AFF9"></path></g><defs><clipPath id="clip0_107_5"><rect width="376" height="37" fill="white"></rect></clipPath></defs></svg> 