<svg xmlns="http://www.w3.org/2000/svg" xmlns:xlink="http://www.w3.org/1999/xlink" width="500" zoomAndPan="magnify" viewBox="0 0 375 374.999991" height="500" preserveAspectRatio="xMidYMid meet" version="1.0"><defs><clipPath id="4cd7b43f83"><path d="M 16.363281 0 L 358.363281 0 L 358.363281 375 L 16.363281 375 Z M 16.363281 0 " clip-rule="nonzero"/></clipPath></defs><g clip-path="url(#4cd7b43f83)"><path fill="#3028b2" d="M 275.511719 126.011719 L 275.511719 300.546875 L 233.925781 274.003906 L 233.925781 0.3125 L 147.140625 76.179688 L 147.140625 223.699219 L 101.800781 197.164062 L 101.800781 79.714844 L 16.363281 146.742188 L 16.363281 374.6875 L 168.84375 283.101562 L 168.648438 86.003906 L 212.421875 47.722656 L 212.421875 287.429688 L 297.015625 338.246094 L 297.015625 137.621094 L 336.835938 111.410156 L 336.835938 361.472656 L 358.34375 374.6875 L 358.34375 71.511719 Z M 37.867188 339.726562 L 37.867188 157.230469 L 80.304688 123.941406 L 80.304688 209.132812 L 168.074219 261.65625 Z M 37.867188 339.726562 " fill-opacity="1" fill-rule="nonzero"/></g></svg>